<svg width="142" height="39" viewBox="0 0 142 39" fill="none" xmlns="http://www.w3.org/2000/svg">
<g clip-path="url(#clip0_6_409)">
<path fill-rule="evenodd" clip-rule="evenodd" d="M37.2356 33.2952L40.1868 36.2496C40.7062 36.7676 41.4001 37.0733 42.1328 37.1071C42.8656 37.1408 43.5846 36.9002 44.1495 36.4322C44.7143 35.9642 45.0844 35.3024 45.1874 34.5761C45.2904 33.8499 45.119 33.1113 44.7066 32.5046L41.3585 29.1597C41.3639 29.7032 41.2611 30.2424 41.056 30.7458C40.8509 31.2492 40.5476 31.7067 40.1638 32.0916C39.7801 32.4766 39.3235 32.7812 38.8207 32.9879C38.318 33.1945 37.7791 33.299 37.2356 33.2952ZM27.1031 33.1692L30.1456 36.2213C30.6846 36.7666 31.4149 37.0803 32.1815 37.0956C32.948 37.1109 33.6903 36.8267 34.2506 36.3033C34.8109 35.7799 35.145 35.0587 35.1819 34.2929C35.2187 33.5271 34.9555 32.7771 34.4481 32.2023L34.3536 32.1078L31.2701 29.0274C31.2778 29.576 31.1751 30.1206 30.9682 30.6287C30.7613 31.1369 30.4544 31.5983 30.0657 31.9855C29.677 32.3727 29.2145 32.6779 28.7055 32.8829C28.1966 33.0878 27.6516 33.1884 27.1031 33.1787V33.1692ZM32.1425 28.2368C33.2544 29.3455 34.3788 30.4416 35.4875 31.5534C36.0594 31.9873 36.7701 32.1973 37.486 32.144C38.2018 32.0907 38.8736 31.7778 39.3749 31.264C39.8763 30.7503 40.1728 30.0711 40.2086 29.3541C40.2444 28.6372 40.0171 27.9318 39.5695 27.3707L36.3001 24.1013C36.3056 24.6472 36.2019 25.1888 35.995 25.6941C35.7882 26.1993 35.4823 26.6581 35.0955 27.0434C34.7087 27.4288 34.2488 27.7329 33.7427 27.9378C33.2367 28.1427 32.6948 28.2444 32.1488 28.2368H32.1425ZM26.5739 24.3186L22.4195 28.4857L25.0841 31.1503C25.6266 31.68 26.3524 31.9803 27.1106 31.9889C27.8688 31.9974 28.6011 31.7135 29.1554 31.1961C29.7097 30.6787 30.0433 29.9676 30.0869 29.2106C30.1306 28.4536 29.8809 27.709 29.3897 27.1313L29.2921 27.0399L26.5739 24.3186ZM31.5535 19.3295L27.4023 23.4903L30.2842 26.3754C30.8398 26.8525 31.5533 27.1056 32.2855 27.085C33.0176 27.0645 33.7158 26.7719 34.2438 26.2644C34.7718 25.7568 35.0917 25.0707 35.1412 24.34C35.1906 23.6093 34.966 22.8863 34.5111 22.3123C33.5221 21.3201 32.5425 20.3217 31.5535 19.3295ZM39.4844 17.3232L37.982 15.8208C37.5932 15.4344 37.0672 15.2175 36.519 15.2175C35.9708 15.2175 35.4449 15.4344 35.056 15.8208L32.3756 18.5043L35.1032 21.2319L35.1725 21.3012C35.7175 21.7956 36.4278 22.068 37.1635 22.065C37.8993 22.0619 38.6073 21.7834 39.1481 21.2845C39.6889 20.7856 40.0233 20.1023 40.0856 19.3692C40.1478 18.636 39.9334 17.9062 39.4844 17.3232ZM37.0907 23.2162C38.212 24.3344 39.3521 25.4368 40.4703 26.5549C41.0425 26.9737 41.7467 27.172 42.4534 27.1133C43.1602 27.0545 43.822 26.7428 44.3173 26.2352C44.8125 25.7277 45.108 25.0585 45.1495 24.3505C45.1909 23.6426 44.9755 22.9434 44.5428 22.3816L41.2608 19.087C41.2655 19.633 41.161 20.1744 40.9533 20.6793C40.7457 21.1843 40.4392 21.6426 40.0518 22.0273C39.6644 22.4121 39.204 22.7155 38.6976 22.9196C38.1913 23.1238 37.6492 23.2247 37.1033 23.2162H37.0907ZM49.6673 27.5061L46.3003 24.1454C46.3049 24.686 46.2024 25.2222 45.9986 25.723C45.7949 26.2238 45.494 26.6792 45.1134 27.0631C44.7327 27.447 44.2798 27.7517 43.7807 27.9597C43.2817 28.1676 42.7464 28.2746 42.2057 28.2746L45.1916 31.2605L45.2609 31.333C45.7958 31.8058 46.4841 32.0682 47.198 32.0715C47.9118 32.0747 48.6026 31.8186 49.1417 31.3507C49.6808 30.8828 50.0317 30.235 50.1289 29.5278C50.2262 28.8206 50.0633 28.1022 49.6705 27.5061H49.6673ZM51.3209 29.1597C51.3212 29.7093 51.2109 30.2533 50.9965 30.7593C50.7821 31.2653 50.4681 31.723 50.0731 32.1051C49.678 32.4872 49.2102 32.7859 48.6973 32.9833C48.1844 33.1807 47.637 33.2729 47.0877 33.2543L50.1398 36.3063C50.4142 36.5799 50.7399 36.7968 51.0981 36.9445C51.4564 37.0923 51.8402 37.1681 52.2277 37.1675C52.6153 37.1669 52.9989 37.09 53.3567 36.9411C53.7145 36.7923 54.0395 36.5744 54.3131 36.3C54.5867 36.0256 54.8036 35.6999 54.9514 35.3417C55.0991 34.9834 55.1749 34.5996 55.1743 34.212C55.1737 33.8245 55.0968 33.4409 54.9479 33.0831C54.7991 32.7253 54.5812 32.4003 54.3068 32.1267C53.3147 31.1377 52.3162 30.1518 51.3209 29.1597ZM14.4445 34.8291L30.8228 18.4035C29.7333 16.9355 29.2587 15.1007 29.5 13.2885L6.61441 36.7221C7.94769 37.1367 9.36766 37.1868 10.7269 36.8672C12.086 36.5476 13.3349 35.87 14.3437 34.9047L14.4445 34.8291ZM39.2797 10.0034C39.3691 9.42619 39.335 8.83663 39.1797 8.2736C39.0244 7.71058 38.7515 7.18689 38.3789 6.73714C37.6085 5.81525 36.544 5.18682 35.3647 4.95757C35.2226 4.93446 35.0941 4.85955 35.0039 4.74731C34.9138 4.63506 34.8684 4.49342 34.8765 4.34969C34.9237 3.55912 34.8229 2.69296 34.2465 2.10082C33.2166 1.03308 30.8984 1.11497 29.522 1.21891C28.2842 1.3134 27.0558 1.49923 25.8306 1.69766C24.4668 1.92129 23.1093 2.17011 21.736 2.39374C18.4414 2.93548 13.8366 3.65361 10.6208 2.34334C10.84 3.45729 11.2333 4.52977 11.7862 5.52137C12.8917 7.37967 14.6209 8.38442 16.6745 8.86947C16.7749 8.89252 16.8673 8.94208 16.9421 9.01299C17.0169 9.08389 17.0713 9.17355 17.0997 9.27263C17.1298 9.37085 17.1328 9.47538 17.1084 9.57518C17.084 9.67498 17.0331 9.76633 16.9611 9.83957L3.36709 23.8493C1.94911 25.3057 1.1577 27.2593 1.16232 29.292C1.16335 30.2628 1.34824 31.2247 1.70721 32.1267L21.021 12.2522C21.6258 11.6223 22.5612 12.3404 21.8903 13.0302L2.24266 33.248C3.00631 34.5359 4.12352 35.5777 5.46163 36.2496L30.8417 10.3026C31.1383 9.9514 31.4732 9.63446 31.8402 9.35767C32.9367 8.5163 34.3084 8.11595 35.6854 8.23546C37.0623 8.35496 38.3446 8.98566 39.2797 10.0034ZM31.6669 17.5626L34.2339 14.9893C34.8406 14.3857 35.6616 14.0469 36.5174 14.0469C37.3732 14.0469 38.1942 14.3857 38.801 14.9893L38.8513 15.0365C44.4105 20.3469 49.7051 25.8872 55.1194 31.3109C55.8896 32.0811 56.3223 33.1257 56.3223 34.2149C56.3223 35.3041 55.8896 36.3487 55.1194 37.1189C54.3492 37.8891 53.3046 38.3218 52.2154 38.3218C51.1262 38.3218 50.0816 37.8891 49.3114 37.1189L46.3665 34.174C46.3674 34.9849 46.1276 35.7778 45.6773 36.4522C45.2271 37.1267 44.5867 37.6522 43.8374 37.9623C43.0881 38.2723 42.2636 38.3529 41.4685 38.1938C40.6733 38.0346 39.9433 37.643 39.371 37.0685L36.3316 34.0322C36.3557 34.854 36.1319 35.6639 35.6893 36.3567C35.2467 37.0495 34.6058 37.593 33.8501 37.9165C33.0943 38.24 32.2587 38.3285 31.4519 38.1705C30.6452 38.0126 29.9046 37.6154 29.3267 37.0307L21.6006 29.3077L14.687 36.2213L14.6461 36.1835C12.8772 37.6151 10.6297 38.3196 8.36013 38.1537C6.09058 37.9879 3.96929 36.9642 2.42731 35.2907C0.885334 33.6172 0.0383459 31.4194 0.0584555 29.1439C0.0785651 26.8684 0.964264 24.6859 2.53558 23.0399L15.465 9.73248C13.5144 9.15085 11.8525 7.85971 10.8066 6.1135C9.92157 4.61741 9.59715 3.06147 9.23179 1.38899C9.20829 1.27643 9.2188 1.15943 9.26199 1.05287C9.30517 0.9463 9.37908 0.85499 9.47432 0.790552C9.56932 0.725274 9.68189 0.69033 9.79716 0.69033C9.91243 0.69033 10.025 0.725274 10.12 0.790552C12.9547 2.65831 18.3501 1.78585 21.5502 1.2567C22.9108 1.03308 24.2715 0.784252 25.6448 0.563775C26.9046 0.355896 28.1645 0.166916 29.4244 0.0692759C31.2197 -0.0661601 33.7174 -0.0913575 35.0654 1.3008C35.715 2.01716 36.0606 2.95799 36.0292 3.92448C37.2919 4.27805 38.4183 5.00482 39.2608 6.00956C40.5774 7.6159 40.7506 9.57815 40.0955 11.5057C40.061 11.6096 39.9976 11.7014 39.9128 11.7706C39.8281 11.8398 39.7254 11.8834 39.6167 11.8963C39.5085 11.9111 39.3983 11.8943 39.2994 11.8479C39.2005 11.8015 39.1171 11.7275 39.0592 11.6349C37.5978 9.37657 34.741 8.6175 32.5268 10.2931C30.2149 12.0443 30.0826 15.2791 31.6669 17.572V17.5626Z" fill="#E30613"/>
<path fill-rule="evenodd" clip-rule="evenodd" d="M104.015 22.3628C102.915 22.5468 101.883 23.0196 101.026 23.7329C100.056 24.5352 99.3441 25.6054 98.9788 26.8099C98.6135 28.0145 98.6112 29.2999 98.972 30.5057C99.3329 31.7116 100.041 32.7844 101.008 33.5903C101.975 34.3962 103.157 34.8994 104.409 35.0371C105.661 35.1438 106.916 34.8611 108.002 34.2276C108.968 33.6552 109.771 32.8442 110.334 31.8724C110.896 30.9007 111.2 29.8006 111.215 28.6779C111.215 27.5637 110.924 26.4687 110.372 25.501C109.82 24.5333 109.025 23.7263 108.065 23.1596C106.851 22.4266 105.417 22.1445 104.015 22.3628ZM121.631 22.3628C120.68 22.5202 119.779 22.8965 118.998 23.462C118.155 24.0609 117.47 24.855 117.001 25.7766C116.532 26.6981 116.293 27.7195 116.305 28.7535C116.335 29.9086 116.669 31.0354 117.275 32.0195C117.881 33.0035 118.736 33.8099 119.754 34.3567C120.931 34.9835 122.281 35.2049 123.596 34.9867C124.909 34.7501 126.115 34.1092 127.046 33.1536C127.977 32.198 128.586 30.9755 128.788 29.657C128.989 28.3384 128.774 26.9897 128.172 25.7994C127.57 24.6091 126.611 23.6366 125.43 23.0179C124.27 22.3879 122.935 22.1577 121.631 22.3628ZM74.7954 3.10881V10.983C76.1403 10.983 77.4852 10.983 78.8301 10.983C79.5477 10.9617 80.246 10.7451 80.8498 10.3567C81.4536 9.96818 81.9401 9.42248 82.2569 8.77822C82.5831 8.13121 82.7186 7.40478 82.6475 6.68369C82.5544 5.78141 82.1541 4.93853 81.5136 4.29624C80.8069 3.57184 79.845 3.15248 78.8332 3.12771C77.482 3.10251 76.1434 3.10881 74.7954 3.10881ZM87.4571 3.10881C87.4571 5.73354 87.4571 8.35827 87.4571 10.983C88.802 10.983 90.1469 10.983 91.4918 10.983C92.2093 10.961 92.9072 10.7442 93.5109 10.3558C94.1146 9.96737 94.6012 9.42205 94.9186 8.77822C95.2451 8.13134 95.3795 7.40453 95.306 6.68369C95.2155 5.79478 94.8256 4.96299 94.2005 4.32458C93.4925 3.58342 92.5196 3.15304 91.4949 3.12771C90.15 3.10251 88.802 3.10881 87.4571 3.10881ZM86.361 22.3943V30.2685H89.4067C90.06 30.3144 90.7165 30.2666 91.3564 30.1267C92.1604 29.9042 92.873 29.432 93.3913 28.7782C93.9096 28.1245 94.2069 27.323 94.2401 26.4894C94.2734 25.6557 94.0411 24.8331 93.5765 24.1401C93.112 23.4471 92.4393 22.9196 91.6556 22.6336C91.2126 22.4724 90.7443 22.3913 90.2729 22.3943C88.9657 22.3974 87.6649 22.3943 86.361 22.3943ZM103.776 20.8509C105.379 20.6009 107.021 20.8725 108.459 21.6258C109.753 22.2965 110.837 23.3106 111.593 24.5569C112.348 25.8032 112.746 27.2336 112.742 28.691C112.738 30.1484 112.333 31.5766 111.571 32.8188C110.808 34.0611 109.719 35.0694 108.421 35.7332C106.887 36.519 105.133 36.7653 103.442 36.4324C102.351 36.1975 101.323 35.7345 100.424 35.0738C99.5247 34.4132 98.7757 33.5699 98.2258 32.5992C97.3026 30.9977 96.97 29.1232 97.2859 27.3019C97.6019 25.4805 98.5463 23.8275 99.955 22.6305C101.039 21.6954 102.362 21.0794 103.776 20.8509ZM121.385 20.8509C122.853 20.6262 124.354 20.833 125.707 21.4462C127.534 22.2877 128.981 23.7802 129.767 25.6321C130.385 27.1273 130.532 28.7756 130.189 30.3567C129.933 31.4918 129.435 32.5582 128.728 33.4825C128.021 34.4068 127.123 35.167 126.094 35.7111C124.764 36.4022 123.261 36.689 121.77 36.5363C120.651 36.4093 119.572 36.041 118.609 35.457C117.646 34.873 116.821 34.0872 116.192 33.1536C115.071 31.5263 114.598 29.5391 114.866 27.5815C115.134 25.6238 116.124 23.8368 117.64 22.5707C118.71 21.6685 120.004 21.0741 121.385 20.8509ZM54.7571 3.10881V16.3374C54.774 16.4961 54.7409 16.6561 54.6624 16.795C54.5839 16.934 54.464 17.0449 54.3193 17.1123C54.1815 17.1695 54.0308 17.1889 53.883 17.1684C53.7351 17.1479 53.5954 17.0883 53.4783 16.9957C53.3902 16.9137 53.3219 16.8126 53.2788 16.7001C53.2357 16.5877 53.2188 16.4669 53.2295 16.3469V3.11826H48.2373C48.1057 3.13077 47.9733 3.10504 47.8559 3.04414C47.7386 2.98324 47.6414 2.88977 47.5759 2.77494L47.5601 2.7277V2.6836C47.4917 2.45126 47.4917 2.20412 47.5601 1.97177L47.579 1.91823L47.6137 1.87413C47.6943 1.77472 47.7984 1.697 47.9167 1.64805C48.0349 1.5991 48.1635 1.58045 48.2908 1.59381C51.9917 1.59381 55.6957 1.59381 59.384 1.59381C59.5373 1.57717 59.6919 1.6101 59.8251 1.68776C59.9583 1.76542 60.0631 1.88372 60.1242 2.02532C60.1814 2.17114 60.1976 2.32988 60.171 2.48426C60.1443 2.63864 60.0758 2.78275 59.973 2.90093C59.8879 2.97695 59.788 3.03464 59.6796 3.0704C59.5713 3.10617 59.4567 3.11924 59.343 3.10881H54.7571ZM70.852 3.10881C68.3858 3.10881 65.9196 3.10881 63.4534 3.10881C63.4534 4.90727 63.4313 6.70889 63.4345 8.5105L66.5432 8.52625C67.7212 8.52625 67.7243 10.016 66.6188 10.0192C65.5133 10.0223 64.4959 10.0192 63.4345 10.0192V15.6571H70.7323C70.8548 15.6444 70.9787 15.6587 71.0951 15.699C71.2116 15.7392 71.3178 15.8045 71.4063 15.8902C71.8189 16.3532 71.5197 17.2068 70.8583 17.169C68.0015 17.169 65.1447 17.169 62.288 17.169H61.9226V1.59381H70.7417C70.8607 1.58446 70.9802 1.59977 71.093 1.6388C71.2057 1.67782 71.3092 1.73971 71.3969 1.82059C71.8126 2.27729 71.5228 3.14975 70.8677 3.10566L70.852 3.10881ZM78.9939 12.4791C80.1026 13.5941 81.2091 14.707 82.3136 15.8177C82.4353 15.9122 82.5275 16.0395 82.5794 16.1845C82.6313 16.3296 82.6407 16.4864 82.6066 16.6367C82.5746 16.7528 82.5156 16.8597 82.4345 16.9488C82.3534 17.0378 82.2524 17.1065 82.1398 17.1491C82.0271 17.1918 81.906 17.2073 81.7863 17.1943C81.6665 17.1813 81.5515 17.1403 81.4506 17.0745L81.4191 17.0556L81.3908 17.0272C79.8695 15.5185 78.3513 14.0004 76.83 12.4885H74.7954V16.3437C74.8103 16.4941 74.7835 16.6457 74.718 16.7818C74.6524 16.9179 74.5506 17.0334 74.4237 17.1154C74.2872 17.187 74.1338 17.2198 73.98 17.2104C73.8262 17.2009 73.6779 17.1496 73.5512 17.0619C73.4576 16.9826 73.3845 16.882 73.3379 16.7685C73.2913 16.6551 73.2726 16.5321 73.2835 16.4099V1.60641H73.6457C75.3749 1.60641 77.1104 1.60641 78.8364 1.60641C80.0464 1.6164 81.2181 2.03217 82.1638 2.78712C83.1095 3.54207 83.7745 4.59253 84.0523 5.77028C84.3162 6.92942 84.2059 8.14239 83.7373 9.23493C83.3978 10.0079 82.8839 10.6917 82.2357 11.2327C81.5876 11.7737 80.823 12.1572 80.0018 12.3531C79.6702 12.4247 79.3329 12.4668 78.9939 12.4791ZM89.4917 12.4791H87.4571V16.3437C87.4691 16.4723 87.4515 16.6019 87.4057 16.7225C87.3598 16.8432 87.2869 16.9518 87.1925 17.0398C86.7169 17.4398 85.8948 17.1154 85.9326 16.4603C85.9326 11.6308 85.9326 6.80128 85.9326 1.97177V1.59381H86.3011C88.0303 1.59381 89.7658 1.59381 91.4918 1.59381C92.7443 1.60572 93.9539 2.05177 94.9143 2.8559C95.8746 3.66003 96.5263 4.77243 96.7581 6.00336C96.9837 7.22208 96.7999 8.48122 96.2352 9.58454C95.853 10.3118 95.311 10.9431 94.6498 11.4308C93.9886 11.9185 93.2255 12.25 92.4178 12.4004C92.1642 12.448 91.9072 12.4754 91.6493 12.4822C92.7769 13.6161 93.9107 14.7469 95.032 15.887C95.1246 15.9696 95.1953 16.0738 95.238 16.1903C95.2806 16.3068 95.2937 16.432 95.2763 16.5548C95.2588 16.6776 95.2113 16.7942 95.1379 16.8942C95.0645 16.9942 94.9676 17.0745 94.8556 17.128H94.8399H94.821C94.6852 17.1847 94.536 17.2009 94.3912 17.1746C94.2465 17.1483 94.1124 17.0807 94.0052 16.98L89.4917 12.4791ZM133.842 22.3943C133.842 24.1959 133.842 25.9965 133.842 27.796H136.992C138.098 27.796 138.148 29.3015 137.039 29.3047C135.931 29.3078 134.92 29.3047 133.842 29.3047C133.842 31.4811 133.858 33.6575 133.842 35.8371C133.842 36.4922 132.995 36.7284 132.548 36.3127C132.472 36.2315 132.413 36.135 132.377 36.0297C132.341 35.9244 132.327 35.8126 132.337 35.7017C132.337 30.8826 132.337 26.0647 132.337 21.2478V20.8824H141.156C141.272 20.8719 141.389 20.8852 141.5 20.9215C141.611 20.9578 141.714 21.0163 141.802 21.0935C142.227 21.5502 141.934 22.4226 141.263 22.3785C138.79 22.3974 136.315 22.3943 133.842 22.3943ZM84.8491 22.3943H62.7163C62.5921 22.4069 62.4665 22.3917 62.3488 22.3498C62.2311 22.3078 62.1243 22.2402 62.036 22.1517C61.6392 21.6856 61.9321 20.8478 62.5904 20.8919H84.8491H89.6083C90.1225 20.874 90.6372 20.894 91.1485 20.9517C91.8596 21.0601 92.5423 21.3078 93.1574 21.6808C93.7725 22.0538 94.3079 22.5445 94.7328 23.125C95.3138 23.9445 95.6621 24.906 95.7409 25.9075C95.8196 26.909 95.6258 27.9131 95.1801 28.8133C94.8471 29.4695 94.3855 30.0519 93.8227 30.5259C93.26 30.9999 92.6076 31.3558 91.9044 31.5724C93.0918 32.7756 94.2856 33.9725 95.4698 35.1788C95.5654 35.2625 95.6383 35.3689 95.6818 35.4882C95.7254 35.6075 95.7382 35.7358 95.719 35.8614C95.6999 35.9869 95.6494 36.1056 95.5723 36.2065C95.4951 36.3074 95.3938 36.3873 95.2777 36.4387H95.262H95.2462C95.1238 36.4844 94.992 36.4993 94.8624 36.4823C94.7328 36.4653 94.6094 36.4168 94.5029 36.341L89.9233 31.7772H86.361C86.361 33.1063 86.361 34.4355 86.361 35.7583C86.3608 35.8689 86.3362 35.978 86.2887 36.0778C86.2413 36.1776 86.1723 36.2656 86.0868 36.3355C86.0012 36.4054 85.9011 36.4555 85.7939 36.482C85.6866 36.5086 85.5748 36.511 85.4665 36.4891C85.2792 36.4617 85.1102 36.3618 84.9959 36.211C84.8816 36.0602 84.8311 35.8704 84.8554 35.6828L84.8491 22.3943ZM114.333 16.6178C114.304 16.7272 114.25 16.8288 114.177 16.9149C114.103 17.001 114.011 17.0695 113.908 17.1154C113.804 17.1613 113.691 17.1835 113.578 17.1802C113.465 17.1769 113.354 17.1483 113.253 17.0965C112.985 16.9768 112.938 16.7816 112.796 16.5453C110.724 12.4318 108.649 8.32047 106.572 4.21119L103.366 10.4381H105.719C105.843 10.4252 105.969 10.4403 106.087 10.4823C106.204 10.5243 106.311 10.592 106.399 10.6806C106.799 11.1468 106.503 11.9877 105.845 11.9405H102.588L100.698 15.6445H105.968C106.092 15.6323 106.217 15.6477 106.335 15.6897C106.453 15.7316 106.56 15.799 106.648 15.887C107.045 16.3532 106.752 17.191 106.094 17.1469C103.555 17.1469 101.335 17.1469 98.799 17.1469H98.2006L98.4746 16.6146C101.064 11.5751 103.655 6.52621 106.248 1.46783L106.563 0.837891L106.878 1.46783L114.122 15.7737C114.261 16.0792 114.412 16.2808 114.333 16.6178Z" fill="#E30613"/>
</g>
<defs>
<clipPath id="clip0_6_409">
<rect width="142" height="38.3158" fill="white"/>
</clipPath>
</defs>
</svg>
