<svg width="142" height="39" viewBox="0 0 142 39" fill="none" xmlns="http://www.w3.org/2000/svg">
<g clip-path="url(#clip0_616_67)">
<path fill-rule="evenodd" clip-rule="evenodd" d="M37.2356 33.2952L40.1868 36.2496C40.7062 36.7676 41.4001 37.0733 42.1328 37.1071C42.8656 37.1409 43.5846 36.9002 44.1495 36.4322C44.7143 35.9642 45.0844 35.3024 45.1874 34.5762C45.2904 33.8499 45.119 33.1113 44.7066 32.5047L41.3585 29.1597C41.3639 29.7033 41.2611 30.2424 41.056 30.7458C40.8509 31.2492 40.5476 31.7067 40.1638 32.0916C39.7801 32.4766 39.3235 32.7813 38.8207 32.9879C38.318 33.1946 37.7791 33.299 37.2356 33.2952M27.1031 33.1692L30.1456 36.2213C30.6846 36.7666 31.4149 37.0803 32.1815 37.0956C32.948 37.1109 33.6903 36.8267 34.2506 36.3033C34.8109 35.78 35.145 35.0587 35.1819 34.2929C35.2187 33.5271 34.9555 32.7771 34.4481 32.2023L34.3536 32.1078L31.2701 29.0274C31.2778 29.576 31.1751 30.1206 30.9682 30.6288C30.7613 31.1369 30.4544 31.5983 30.0657 31.9856C29.677 32.3728 29.2145 32.6779 28.7055 32.8829C28.1966 33.0879 27.6516 33.1885 27.1031 33.1787V33.1692ZM32.1425 28.2369C33.2544 29.3455 34.3788 30.4416 35.4875 31.5535C36.0594 31.9873 36.7701 32.1973 37.486 32.144C38.2018 32.0907 38.8736 31.7778 39.3749 31.264C39.8763 30.7503 40.1728 30.0711 40.2086 29.3542C40.2444 28.6372 40.0171 27.9319 39.5695 27.3707L36.3001 24.1013C36.3056 24.6473 36.2019 25.1888 35.995 25.6941C35.7882 26.1994 35.4823 26.6581 35.0955 27.0435C34.7087 27.4288 34.2488 27.7329 33.7427 27.9378C33.2367 28.1428 32.6948 28.2444 32.1488 28.2369H32.1425ZM26.5739 24.3187L22.4195 28.4857L25.0841 31.1503C25.6266 31.68 26.3524 31.9804 27.1106 31.9889C27.8688 31.9974 28.6011 31.7135 29.1554 31.1961C29.7097 30.6787 30.0433 29.9676 30.0869 29.2107C30.1306 28.4537 29.8809 27.709 29.3897 27.1313L29.2921 27.04L26.5739 24.3187ZM31.5535 19.3296L27.4023 23.4903L30.2842 26.3754C30.8398 26.8526 31.5533 27.1056 32.2855 27.0851C33.0176 27.0645 33.7158 26.772 34.2438 26.2644C34.7718 25.7568 35.0917 25.0707 35.1412 24.34C35.1906 23.6093 34.966 22.8864 34.5111 22.3123C33.5221 21.3202 32.5425 20.3217 31.5535 19.3296V19.3296ZM39.4844 17.3232L37.982 15.8208C37.5932 15.4344 37.0672 15.2176 36.519 15.2176C35.9708 15.2176 35.4449 15.4344 35.056 15.8208L32.3756 18.5044L35.1032 21.232L35.1725 21.3013C35.7175 21.7956 36.4278 22.0681 37.1635 22.065C37.8993 22.0619 38.6073 21.7835 39.1481 21.2846C39.6889 20.7856 40.0233 20.1024 40.0856 19.3692C40.1478 18.6361 39.9334 17.9062 39.4844 17.3232V17.3232ZM37.0907 23.2163C38.212 24.3344 39.3521 25.4368 40.4703 26.5549C41.0425 26.9738 41.7467 27.172 42.4534 27.1133C43.1602 27.0546 43.822 26.7428 44.3173 26.2353C44.8125 25.7277 45.108 25.0585 45.1495 24.3505C45.1909 23.6426 44.9755 22.9435 44.5428 22.3816L41.2608 19.087C41.2655 19.633 41.161 20.1744 40.9533 20.6793C40.7457 21.1843 40.4392 21.6426 40.0518 22.0274C39.6644 22.4121 39.204 22.7155 38.6976 22.9197C38.1913 23.1239 37.6492 23.2247 37.1033 23.2163H37.0907ZM49.6673 27.5061L46.3003 24.1454C46.3049 24.686 46.2024 25.2222 45.9987 25.723C45.7949 26.2238 45.494 26.6793 45.1134 27.0632C44.7327 27.447 44.2798 27.7518 43.7807 27.9597C43.2817 28.1676 42.7464 28.2747 42.2057 28.2747L45.1916 31.2605L45.2609 31.333C45.7958 31.8058 46.4841 32.0682 47.198 32.0715C47.9118 32.0748 48.6026 31.8186 49.1417 31.3507C49.6808 30.8828 50.0317 30.2351 50.1289 29.5279C50.2262 28.8207 50.0633 28.1022 49.6705 27.5061H49.6673ZM51.3209 29.1597C51.3212 29.7093 51.2109 30.2533 50.9965 30.7593C50.7821 31.2654 50.4681 31.7231 50.0731 32.1051C49.678 32.4872 49.2102 32.7859 48.6973 32.9833C48.1844 33.1807 47.637 33.2729 47.0877 33.2543L50.1398 36.3063C50.4142 36.5799 50.7399 36.7968 51.0981 36.9446C51.4564 37.0923 51.8402 37.1681 52.2277 37.1675C52.6153 37.1669 52.9989 37.09 53.3567 36.9412C53.7145 36.7923 54.0395 36.5745 54.3131 36.3C54.5867 36.0256 54.8036 35.6999 54.9514 35.3417C55.0991 34.9834 55.1749 34.5996 55.1743 34.2121C55.1737 33.8245 55.0968 33.4409 54.9479 33.0831C54.7991 32.7253 54.5812 32.4003 54.3068 32.1267C53.3147 31.1377 52.3162 30.1519 51.3209 29.1597V29.1597ZM14.4445 34.8291L30.8228 18.4036C29.7333 16.9355 29.2587 15.1007 29.5 13.2885L6.61441 36.7221C7.94769 37.1367 9.36766 37.1868 10.7269 36.8673C12.086 36.5477 13.3349 35.87 14.3437 34.9047L14.4445 34.8291ZM39.2797 10.0034C39.3691 9.42622 39.335 8.83666 39.1797 8.27363C39.0244 7.71061 38.7515 7.18692 38.3789 6.73717C37.6085 5.81528 36.544 5.18686 35.3647 4.9576C35.2226 4.93449 35.0941 4.85959 35.0039 4.74734C34.9138 4.63509 34.8684 4.49345 34.8765 4.34972C34.9237 3.55915 34.8229 2.69299 34.2465 2.10085C33.2166 1.03311 30.8984 1.115 29.522 1.21894C28.2842 1.31343 27.0558 1.49926 25.8306 1.69769C24.4668 1.92132 23.1093 2.17014 21.736 2.39377C18.4414 2.93551 13.8366 3.65364 10.6208 2.34337C10.84 3.45733 11.2333 4.5298 11.7862 5.5214C12.8917 7.3797 14.6209 8.38445 16.6745 8.8695C16.7749 8.89255 16.8673 8.94211 16.9421 9.01302C17.0169 9.08392 17.0713 9.17358 17.0997 9.27266C17.1298 9.37088 17.1328 9.47541 17.1084 9.57521C17.084 9.67501 17.0331 9.76636 16.9611 9.8396L3.36709 23.8494C1.94911 25.3057 1.1577 27.2594 1.16232 29.292C1.16335 30.2628 1.34824 31.2247 1.70721 32.1267L21.021 12.2523C21.6258 11.6223 22.5612 12.3404 21.8903 13.0302L2.24266 33.248C3.00631 34.536 4.12352 35.5777 5.46163 36.2496L30.8417 10.3026C31.1383 9.95143 31.4732 9.6345 31.8402 9.3577C32.9367 8.51633 34.3084 8.11598 35.6854 8.23549C37.0623 8.35499 38.3446 8.98569 39.2797 10.0034V10.0034ZM31.6669 17.5626L34.2339 14.9893C34.8406 14.3858 35.6616 14.047 36.5174 14.047C37.3732 14.047 38.1942 14.3858 38.801 14.9893L38.8513 15.0366C44.4105 20.3469 49.7051 25.8872 55.1194 31.3109C55.8896 32.0811 56.3223 33.1257 56.3223 34.2149C56.3223 35.3042 55.8896 36.3488 55.1194 37.1189C54.3492 37.8891 53.3046 38.3218 52.2154 38.3218C51.1262 38.3218 50.0816 37.8891 49.3114 37.1189L46.3665 34.174C46.3674 34.9849 46.1276 35.7778 45.6773 36.4523C45.2271 37.1267 44.5867 37.6522 43.8374 37.9623C43.0881 38.2723 42.2636 38.3529 41.4685 38.1938C40.6733 38.0347 39.9433 37.643 39.371 37.0686L36.3316 34.0323C36.3557 34.854 36.1319 35.664 35.6893 36.3567C35.2467 37.0495 34.6058 37.593 33.8501 37.9165C33.0943 38.24 32.2587 38.3285 31.4519 38.1706C30.6452 38.0126 29.9046 37.6154 29.3267 37.0308L21.6006 29.3077L14.687 36.2213L14.6461 36.1835C12.8772 37.6151 10.6297 38.3196 8.36013 38.1538C6.09058 37.9879 3.96929 36.9643 2.42731 35.2908C0.885334 33.6172 0.0383459 31.4194 0.0584555 29.1439C0.0785651 26.8684 0.964264 24.6859 2.53558 23.0399L15.465 9.73251C13.5144 9.15088 11.8525 7.85974 10.8066 6.11353C9.92157 4.61744 9.59715 3.0615 9.23179 1.38902C9.20829 1.27646 9.2188 1.15946 9.26199 1.0529C9.30517 0.94633 9.37908 0.85502 9.47432 0.790582C9.56932 0.725304 9.68189 0.69036 9.79716 0.69036C9.91243 0.69036 10.025 0.725304 10.12 0.790582C12.9547 2.65834 18.3501 1.78588 21.5502 1.25673C22.9108 1.03311 24.2715 0.784283 25.6448 0.563806C26.9046 0.355927 28.1645 0.166946 29.4244 0.0693065C31.2197 -0.0661296 33.7174 -0.091327 35.0654 1.30083C35.715 2.01719 36.0606 2.95802 36.0292 3.92451C37.2919 4.27808 38.4183 5.00485 39.2608 6.0096C40.5774 7.61593 40.7506 9.57818 40.0955 11.5058C40.061 11.6096 39.9976 11.7015 39.9128 11.7706C39.8281 11.8398 39.7254 11.8834 39.6167 11.8963C39.5085 11.9111 39.3983 11.8943 39.2994 11.8479C39.2005 11.8015 39.1171 11.7276 39.0592 11.6349C37.5978 9.3766 34.741 8.61753 32.5268 10.2932C30.2149 12.0444 30.0826 15.2791 31.6669 17.5721V17.5626Z" fill="#E30613"/>
<path fill-rule="evenodd" clip-rule="evenodd" d="M104.015 22.3627C102.915 22.5467 101.883 23.0195 101.026 23.7328C100.056 24.5351 99.3441 25.6053 98.9788 26.8099C98.6135 28.0144 98.6112 29.2998 98.972 30.5056C99.3329 31.7115 100.041 32.7843 101.008 33.5902C101.975 34.3961 103.157 34.8993 104.409 35.037C105.661 35.1437 106.916 34.861 108.002 34.2275C108.968 33.6551 109.771 32.8441 110.334 31.8724C110.896 30.9006 111.2 29.8006 111.215 28.6778C111.215 27.5636 110.924 26.4686 110.372 25.5009C109.82 24.5332 109.025 23.7262 108.065 23.1596C106.851 22.4265 105.417 22.1444 104.015 22.3627M121.631 22.3627C120.68 22.5201 119.779 22.8964 118.998 23.4619C118.155 24.0608 117.47 24.855 117.001 25.7765C116.532 26.698 116.293 27.7194 116.305 28.7534C116.335 29.9085 116.669 31.0353 117.275 32.0194C117.881 33.0035 118.736 33.8098 119.754 34.3567C120.931 34.9834 122.281 35.2048 123.596 34.9866C124.909 34.75 126.115 34.1091 127.046 33.1535C127.977 32.1979 128.586 30.9754 128.788 29.6569C128.989 28.3383 128.774 26.9896 128.172 25.7993C127.57 24.609 126.611 23.6365 125.43 23.0178C124.27 22.3878 122.935 22.1576 121.631 22.3627V22.3627ZM74.7954 3.10872V10.9829C76.1403 10.9829 77.4852 10.9829 78.8301 10.9829C79.5477 10.9616 80.246 10.745 80.8498 10.3566C81.4536 9.96809 81.9401 9.42239 82.2569 8.77813C82.5831 8.13112 82.7186 7.40469 82.6475 6.6836C82.5544 5.78132 82.1541 4.93843 81.5136 4.29614C80.8069 3.57175 79.845 3.15239 78.8332 3.12761C77.482 3.10242 76.1434 3.10872 74.7954 3.10872ZM87.4571 3.10872C87.4571 5.73345 87.4571 8.35818 87.4571 10.9829C88.802 10.9829 90.1469 10.9829 91.4918 10.9829C92.2093 10.9609 92.9073 10.7441 93.5109 10.3557C94.1146 9.96728 94.6012 9.42196 94.9186 8.77813C95.2451 8.13125 95.3795 7.40444 95.3061 6.6836C95.2154 5.79469 94.8256 4.9629 94.2005 4.32449C93.4925 3.58333 92.5196 3.15295 91.4949 3.12761C90.15 3.10242 88.802 3.10872 87.4571 3.10872ZM86.361 22.3942V30.2684H89.4067C90.06 30.3143 90.7165 30.2665 91.3564 30.1266C92.1604 29.9041 92.873 29.4319 93.3913 28.7781C93.9096 28.1244 94.2069 27.3229 94.2401 26.4893C94.2734 25.6557 94.0411 24.833 93.5765 24.14C93.112 23.447 92.4393 22.9195 91.6556 22.6336C91.2126 22.4723 90.7443 22.3912 90.2729 22.3942C88.9657 22.3973 87.6649 22.3942 86.361 22.3942ZM103.776 20.8508C105.379 20.6008 107.021 20.8724 108.459 21.6257C109.753 22.2964 110.837 23.3105 111.593 24.5568C112.348 25.8031 112.746 27.2335 112.742 28.6909C112.738 30.1483 112.333 31.5765 111.571 32.8187C110.808 34.061 109.719 35.0693 108.421 35.7331C106.887 36.5189 105.133 36.7652 103.442 36.4323C102.351 36.1974 101.323 35.7344 100.424 35.0737C99.5247 34.4131 98.7757 33.5698 98.2258 32.5991C97.3026 30.9976 96.97 29.1231 97.2859 27.3018C97.6019 25.4804 98.5463 23.8274 99.955 22.6304C101.039 21.6953 102.362 21.0793 103.776 20.8508V20.8508ZM121.385 20.8508C122.853 20.6261 124.354 20.8329 125.707 21.4461C127.534 22.2876 128.981 23.7801 129.767 25.632C130.385 27.1272 130.532 28.7755 130.189 30.3566C129.933 31.4917 129.435 32.5581 128.728 33.4824C128.021 34.4067 127.123 35.167 126.094 35.711C124.764 36.4021 123.261 36.6889 121.77 36.5362C120.651 36.4092 119.572 36.041 118.609 35.457C117.646 34.873 116.821 34.0871 116.192 33.1535C115.071 31.5262 114.598 29.539 114.866 27.5814C115.134 25.6237 116.124 23.8367 117.64 22.5706C118.71 21.6684 120.004 21.074 121.385 20.8508V20.8508ZM54.7571 3.10872V16.3374C54.774 16.496 54.7409 16.656 54.6624 16.7949C54.5839 16.9339 54.464 17.0448 54.3193 17.1122C54.1815 17.1694 54.0308 17.1888 53.883 17.1683C53.7351 17.1478 53.5954 17.0882 53.4783 16.9956C53.3902 16.9136 53.3219 16.8125 53.2788 16.7C53.2357 16.5876 53.2188 16.4668 53.2295 16.3468V3.11816H48.2373C48.1057 3.13068 47.9733 3.10495 47.8559 3.04405C47.7386 2.98315 47.6414 2.88967 47.5759 2.77485L47.5601 2.7276V2.68351C47.4917 2.45117 47.4917 2.20403 47.5601 1.97168L47.579 1.91814L47.6137 1.87404C47.6943 1.77462 47.7984 1.69691 47.9167 1.64796C48.0349 1.59901 48.1635 1.58036 48.2908 1.59372C51.9917 1.59372 55.6957 1.59372 59.384 1.59372C59.5373 1.57708 59.6919 1.61001 59.8251 1.68767C59.9583 1.76533 60.0631 1.88363 60.1242 2.02523C60.1814 2.17105 60.1976 2.32978 60.171 2.48416C60.1443 2.63855 60.0758 2.78266 59.973 2.90084C59.8879 2.97686 59.788 3.03455 59.6796 3.07031C59.5713 3.10608 59.4567 3.11915 59.343 3.10872H54.7571ZM70.852 3.10872C68.3858 3.10872 65.9196 3.10872 63.4534 3.10872C63.4534 4.90718 63.4313 6.7088 63.4345 8.51041L66.5432 8.52616C67.7212 8.52616 67.7243 10.016 66.6188 10.0191C65.5133 10.0223 64.4959 10.0191 63.4345 10.0191V15.657H70.7323C70.8548 15.6443 70.9787 15.6586 71.0951 15.6989C71.2116 15.7391 71.3178 15.8044 71.4063 15.8901C71.8189 16.3531 71.5197 17.2067 70.8583 17.1689C68.0015 17.1689 65.1447 17.1689 62.288 17.1689H61.9226V1.59372H70.7417C70.8607 1.58437 70.9802 1.59968 71.093 1.63871C71.2057 1.67773 71.3092 1.73962 71.3969 1.8205C71.8126 2.2772 71.5228 3.14966 70.8677 3.10557L70.852 3.10872ZM78.9939 12.479C80.1026 13.594 81.2091 14.7069 82.3136 15.8177C82.4353 15.9121 82.5275 16.0394 82.5794 16.1844C82.6313 16.3295 82.6407 16.4863 82.6066 16.6366C82.5746 16.7527 82.5156 16.8596 82.4345 16.9487C82.3534 17.0377 82.2524 17.1064 82.1398 17.149C82.0271 17.1917 81.906 17.2072 81.7863 17.1942C81.6665 17.1812 81.5515 17.1402 81.4506 17.0744L81.4191 17.0555L81.3908 17.0271C79.8695 15.5184 78.3513 14.0003 76.83 12.4885H74.7954V16.3437C74.8103 16.494 74.7835 16.6456 74.718 16.7817C74.6524 16.9179 74.5506 17.0333 74.4237 17.1153C74.2872 17.1869 74.1338 17.2197 73.98 17.2103C73.8262 17.2008 73.6779 17.1495 73.5512 17.0618C73.4576 16.9825 73.3845 16.8819 73.3379 16.7684C73.2913 16.655 73.2726 16.532 73.2835 16.4098V1.60632H73.6457C75.3749 1.60632 77.1104 1.60632 78.8364 1.60632C80.0464 1.61631 81.2181 2.03207 82.1638 2.78702C83.1095 3.54197 83.7745 4.59244 84.0523 5.77019C84.3162 6.92933 84.2059 8.1423 83.7373 9.23484C83.3978 10.0078 82.8839 10.6916 82.2357 11.2326C81.5876 11.7736 80.823 12.1571 80.0018 12.353C79.6702 12.4246 79.3329 12.4667 78.9939 12.479V12.479ZM89.4918 12.479H87.4571V16.3437C87.4691 16.4722 87.4515 16.6018 87.4057 16.7224C87.3598 16.8431 87.2869 16.9517 87.1925 17.0397C86.7169 17.4397 85.8948 17.1153 85.9326 16.4602C85.9326 11.6307 85.9326 6.80119 85.9326 1.97168V1.59372H86.3011C88.0303 1.59372 89.7658 1.59372 91.4918 1.59372C92.7443 1.60563 93.9539 2.05168 94.9143 2.85581C95.8746 3.65994 96.5263 4.77234 96.7581 6.00327C96.9837 7.22198 96.7999 8.48113 96.2352 9.58445C95.853 10.3118 95.311 10.943 94.6498 11.4307C93.9886 11.9184 93.2255 12.2499 92.4178 12.4003C92.1642 12.4479 91.9072 12.4753 91.6493 12.4822C92.7769 13.616 93.9107 14.7468 95.032 15.887C95.1246 15.9695 95.1953 16.0737 95.238 16.1902C95.2806 16.3067 95.2937 16.4319 95.2763 16.5547C95.2588 16.6775 95.2113 16.7941 95.1379 16.8941C95.0645 16.9941 94.9676 17.0744 94.8556 17.1279H94.8399H94.821C94.6852 17.1846 94.536 17.2008 94.3912 17.1745C94.2465 17.1483 94.1124 17.0807 94.0052 16.9799L89.4918 12.479ZM133.842 22.3942C133.842 24.1958 133.842 25.9964 133.842 27.7959H136.992C138.098 27.7959 138.148 29.3014 137.039 29.3046C135.931 29.3077 134.92 29.3046 133.842 29.3046C133.842 31.481 133.858 33.6574 133.842 35.837C133.842 36.4921 132.995 36.7284 132.548 36.3126C132.472 36.2314 132.413 36.1349 132.377 36.0296C132.341 35.9243 132.327 35.8125 132.337 35.7016C132.337 30.8826 132.337 26.0646 132.337 21.2477V20.8823H141.156C141.272 20.8718 141.389 20.8851 141.5 20.9214C141.611 20.9577 141.714 21.0162 141.802 21.0934V21.0934C142.227 21.5501 141.934 22.4225 141.263 22.3784C138.79 22.3973 136.315 22.3942 133.842 22.3942ZM84.8491 22.3942H62.7163C62.5921 22.4068 62.4665 22.3916 62.3488 22.3497C62.2311 22.3077 62.1243 22.2401 62.036 22.1517C61.6392 21.6855 61.9321 20.8477 62.5904 20.8918H84.8491H89.6083C90.1225 20.8739 90.6373 20.8939 91.1485 20.9516C91.8596 21.06 92.5423 21.3078 93.1574 21.6807C93.7725 22.0537 94.3079 22.5445 94.7328 23.1249C95.3138 23.9444 95.6621 24.9059 95.7409 25.9074C95.8196 26.9089 95.6258 27.913 95.1801 28.8132C94.8471 29.4694 94.3855 30.0518 93.8227 30.5258C93.26 30.9998 92.6076 31.3557 91.9044 31.5723C93.0918 32.7755 94.2856 33.9724 95.4698 35.1787C95.5654 35.2624 95.6383 35.3688 95.6818 35.4881C95.7254 35.6074 95.7382 35.7358 95.719 35.8613C95.6999 35.9869 95.6494 36.1056 95.5723 36.2065C95.4951 36.3073 95.3938 36.3872 95.2777 36.4386H95.262H95.2462C95.1238 36.4843 94.992 36.4992 94.8624 36.4822C94.7328 36.4652 94.6094 36.4167 94.5029 36.3409L89.9233 31.7771H86.361C86.361 33.1062 86.361 34.4354 86.361 35.7583C86.3608 35.8688 86.3362 35.9779 86.2887 36.0777C86.2413 36.1775 86.1723 36.2655 86.0867 36.3354C86.0012 36.4053 85.9011 36.4554 85.7939 36.4819C85.6866 36.5085 85.5748 36.5109 85.4665 36.489C85.2792 36.4616 85.1102 36.3618 84.9959 36.2109C84.8816 36.0601 84.8311 35.8704 84.8554 35.6827L84.8491 22.3942ZM114.333 16.6177C114.304 16.7271 114.25 16.8287 114.177 16.9148C114.103 17.0009 114.011 17.0694 113.908 17.1153C113.804 17.1613 113.691 17.1834 113.578 17.1801C113.465 17.1768 113.354 17.1482 113.253 17.0964C112.985 16.9767 112.938 16.7815 112.796 16.5452C110.724 12.4318 108.649 8.32038 106.572 4.2111L103.366 10.438H105.719C105.843 10.4251 105.969 10.4402 106.087 10.4822C106.204 10.5242 106.311 10.5919 106.399 10.6805C106.799 11.1467 106.503 11.9877 105.845 11.9404H102.588L100.698 15.6444H105.968C106.092 15.6322 106.217 15.6476 106.335 15.6896C106.453 15.7315 106.56 15.7989 106.648 15.887C107.045 16.3531 106.752 17.1909 106.094 17.1468C103.555 17.1468 101.335 17.1468 98.799 17.1468H98.2006L98.4746 16.6145C101.064 11.575 103.655 6.52611 106.248 1.46773L106.563 0.837799L106.878 1.46773L114.122 15.7736C114.261 16.0791 114.412 16.2807 114.333 16.6177Z" fill="#E30613"/>
</g>
<defs>
<clipPath id="clip0_616_67">
<rect width="142" height="38.3158" fill="white"/>
</clipPath>
</defs>
</svg>
