<svg width="21" height="20" viewBox="0 0 21 20" fill="none" xmlns="http://www.w3.org/2000/svg">
<path d="M8.92773 11.5057V8.46841" stroke="#151515" stroke-width="2" stroke-linecap="round"/>
<path d="M12.5078 11.5057V8.46841" stroke="#151515" stroke-width="2" stroke-linecap="round"/>
<path d="M16.0879 11.5057V8.46841" stroke="#151515" stroke-width="2" stroke-linecap="round"/>
<path d="M1.44141 1.0365H1.72119C3.86129 1.0365 5.59619 2.77139 5.59619 4.9115V4.9115M5.59619 4.9115V10.4963C5.59619 10.9199 5.25278 11.2633 4.82915 11.2633H4.62813C4.10371 11.2633 3.67859 11.6884 3.67859 12.2128V12.2128C3.67859 13.9609 5.09567 15.378 6.84374 15.378H14.5845C17.4748 15.378 19.8178 13.035 19.8178 10.1447V10.1447C19.8178 7.2545 17.4748 4.9115 14.5845 4.9115H5.59619Z" stroke="#151515" stroke-width="2" stroke-linecap="round"/>
<circle cx="7.46931" cy="17.1823" r="1.59577" stroke="#151515" stroke-width="2"/>
<circle cx="16.2574" cy="17.1823" r="1.59577" stroke="#151515" stroke-width="2"/>
</svg>
