<svg width="22" height="22" viewBox="0 0 22 22" fill="none" xmlns="http://www.w3.org/2000/svg">
<path fill-rule="evenodd" clip-rule="evenodd" d="M10.2078 7.27154C10.7518 6.53842 10.9469 5.76578 10.3316 5.08377C8.95091 3.15179 8.02235 1.95707 7.43991 1.38171C6.33263 0.287892 4.51112 0.435849 3.55213 1.38078C3.03704 1.88831 2.86267 2.0626 2.33379 2.59979C-0.612146 5.5473 1.18444 11.7782 5.96041 16.5589C10.7353 21.3385 16.9656 23.136 19.9178 20.1823C20.4058 19.7118 20.819 19.2984 21.1449 18.9539C22.0847 17.9606 22.2274 16.2194 21.1387 15.0883C20.5806 14.5084 19.4413 13.6246 17.428 12.1845C16.8114 11.6332 16.0803 11.7527 15.41 12.1924C15.0876 12.4039 14.853 12.6179 14.4099 13.0614L13.6054 13.8664C13.4994 13.9724 12.0605 13.2518 10.6637 11.8537C9.26615 10.4548 8.54604 9.01576 8.65151 8.9103L9.45662 8.10474C9.59719 7.96403 9.66439 7.89591 9.75058 7.80533C9.93014 7.61662 10.0788 7.44536 10.2078 7.27154ZM15.0895 15.3506L15.8942 14.5454C16.138 14.3013 16.2961 14.1513 16.4246 14.0478C18.1883 15.3143 19.2097 16.1107 19.6269 16.5442C19.8774 16.8044 19.8384 17.2793 19.6207 17.5095C19.3194 17.828 18.9278 18.2197 18.4474 18.6831C16.5385 20.5929 11.5092 19.1419 7.44486 15.0735C3.37927 11.004 1.92895 5.97392 3.82348 4.07835C4.35022 3.54337 4.51711 3.37656 5.02484 2.87628C5.21521 2.6887 5.73377 2.64658 5.96535 2.87534C6.41377 3.31831 7.24558 4.38338 8.46921 6.08789C8.40587 6.16653 8.32675 6.2554 8.23047 6.3566C8.1598 6.43087 8.10093 6.49055 7.97222 6.61938L7.1679 7.42414C5.79959 8.79234 6.96489 11.1209 9.17929 13.3375C11.3922 15.5526 13.7216 16.7192 15.0895 15.3506ZM13.1456 0.688982C17.6851 1.23922 21.2845 4.83867 21.8347 9.37816L19.7605 9.72386C19.36 6.06737 16.4564 3.16369 12.7999 2.76319L13.1456 0.688982ZM12.4535 4.83974C15.2271 5.08782 17.4361 7.29681 17.6842 10.0704L15.6033 10.4172C15.515 8.52629 13.9976 7.00891 12.1067 6.92061L12.4535 4.83974Z" fill="white"/>
</svg>
