<svg width="16" height="19" viewBox="0 0 16 19" fill="none" xmlns="http://www.w3.org/2000/svg">
<path fill-rule="evenodd" clip-rule="evenodd" d="M0.227661 3.2344C0.130844 2.45999 0.758109 1.89987 1.53509 1.42406C4.40935 -0.284058 4.45232 0.845047 4.92935 2.11762C6.0857 5.20259 6.06661 4.20379 4.60378 6.23214C4.08999 6.94445 5.36135 9.23046 5.89454 10.1602C6.43328 11.087 7.77744 13.3309 8.65095 13.2421C11.139 12.9893 10.2837 12.4733 12.377 15.0175C13.2405 16.0666 14.1972 16.6685 11.28 18.3038C10.4799 18.7387 9.68119 19.002 9.05869 18.5307C5.18404 15.35 1.04488 8.18103 0.227734 3.23444L0.227661 3.2344ZM8.64449 2.54678C10.7907 2.56427 12.767 3.71209 13.8403 5.57127C14.9099 7.42366 14.9167 9.72363 13.8627 11.5846C13.7077 11.8573 13.8034 12.2041 14.0761 12.3589C14.3491 12.5136 14.6958 12.418 14.8502 12.1452C16.101 9.93724 16.0926 7.20343 14.8237 5.00576C13.5459 2.79337 11.2083 1.43346 8.65346 1.41194C8.34023 1.40936 8.0841 1.66157 8.08191 1.97494C8.07933 2.28817 8.33127 2.5443 8.6445 2.54663L8.64449 2.54678ZM8.62754 4.90576C9.93851 4.91661 11.1426 5.61765 11.7979 6.75314C12.4515 7.88253 12.4542 9.28555 11.8111 10.4202C11.6565 10.6928 11.752 11.0395 12.0249 11.1943C12.2975 11.3491 12.6442 11.2536 12.7991 10.9806C13.6366 9.50208 13.6339 7.65512 12.7812 6.18332C11.9235 4.698 10.3508 3.78515 8.63644 3.77092C8.32322 3.76834 8.06708 4.02055 8.06476 4.33393C8.06205 4.64743 8.31412 4.90315 8.62749 4.90575L8.62754 4.90576ZM8.72151 7.27016C9.15636 7.31002 9.53684 7.55437 9.75491 7.93227C9.99166 8.34205 9.99329 8.84376 9.75952 9.2557C9.60453 9.52839 9.70026 9.87525 9.97336 10.0298C10.2459 10.1848 10.5926 10.0891 10.7475 9.81613C11.1765 9.05856 11.1735 8.11711 10.738 7.36276C10.3369 6.66823 9.62215 6.21318 8.82365 6.14007C8.51164 6.11173 8.23558 6.34211 8.20736 6.654C8.17929 6.96614 8.40925 7.24207 8.72151 7.27016Z" fill="#0FD145"/>
</svg>
