<svg width="28" height="28" viewBox="0 0 28 28" fill="none" xmlns="http://www.w3.org/2000/svg">
<g clip-path="url(#clip0_489_1591)">
<path d="M13.5336 0C13.8632 0 14.1929 0 14.5163 0C14.5474 0.0186584 14.5785 0.0435362 14.6096 0.0497557C16.0587 0.366948 16.9978 1.32474 17.2653 2.77388C17.3212 3.09107 17.3026 3.43314 17.3897 3.74411C17.5887 4.48423 18.3723 5.00044 19.0938 4.90715C19.977 4.78898 20.5616 4.12972 20.5802 3.24034C20.6051 2.15193 21.0467 1.25633 21.9423 0.646824C22.359 0.34829 22.8814 0.205242 23.3603 0C23.69 0 24.0134 0 24.343 0C24.3803 0.0186584 24.4239 0.0435362 24.4612 0.0559751C26.072 0.398045 27.1231 1.69169 27.1231 3.34607C27.1231 10.3492 27.1231 17.3523 27.1231 24.3554V24.6788C26.8184 24.6788 26.5509 24.6788 26.2897 24.6788C26.0285 24.6788 25.7673 24.6788 25.5123 24.6788C25.4687 24.4984 25.4501 24.3367 25.4003 24.1813C25.164 23.4411 24.3928 22.9436 23.6713 23.0555C22.7882 23.1924 22.2284 23.8454 22.216 24.7534C22.1786 27.1168 19.6535 28.6779 17.5327 27.6331C16.3386 27.0422 15.7104 26.0595 15.6669 24.7223C15.6358 23.8019 14.989 23.0991 14.0934 23.0493C13.2662 22.9996 12.5323 23.6277 12.4017 24.5047C12.3768 24.685 12.4017 24.8716 12.3768 25.0458C12.1529 26.7934 10.654 28.0809 8.85657 27.944C7.11512 27.8134 5.84013 26.3394 5.83391 24.7223C5.83391 23.8081 5.18709 23.1239 4.2977 23.0431C3.48917 22.9685 2.75528 23.5655 2.58735 24.4425C2.57491 24.5171 2.55626 24.5917 2.54382 24.6602H0.926758C0.926758 24.5544 0.926758 24.4673 0.926758 24.3803C0.926758 17.3398 0.926758 10.2994 0.926758 3.26522C0.926758 2.18303 1.39322 1.32474 2.23284 0.659263C2.67443 0.310973 3.19064 0.149267 3.71307 0C4.03649 0 4.36612 0 4.69575 0C4.72685 0.0186584 4.75794 0.0435362 4.78904 0.0497557C6.23817 0.366948 7.17731 1.32474 7.44475 2.77388C7.50073 3.09107 7.48207 3.43314 7.56914 3.74411C7.76816 4.48423 8.55181 5.00044 9.27327 4.90715C10.1564 4.78898 10.7411 4.12972 10.7597 3.24034C10.7846 2.15193 11.2262 1.25633 12.1218 0.646824C12.5385 0.34829 13.0609 0.205242 13.5336 0ZM2.56248 21.8116C3.6571 21.2457 4.73929 21.2457 5.84013 21.8116V21.5007C5.84013 15.4865 5.84013 9.47223 5.84013 3.46424C5.84013 3.38339 5.84013 3.30253 5.84013 3.22168C5.77794 2.18925 4.88233 1.48645 3.881 1.67925C3.07869 1.83474 2.56869 2.50644 2.56869 3.40826C2.56869 9.44736 2.56869 15.4865 2.56869 21.5255V21.8116H2.56248ZM15.6607 21.8116V21.5255C15.6607 15.4989 15.6607 9.47223 15.6607 3.44558C15.6607 3.37095 15.6607 3.30253 15.6607 3.2279C15.5985 2.16437 14.6531 1.45535 13.6269 1.69169C12.8743 1.86584 12.3892 2.54376 12.3892 3.43314C12.3892 9.45979 12.3892 15.4865 12.3892 21.5131V21.8179C13.4838 21.2457 14.5536 21.2519 15.6669 21.8179L15.6607 21.8116ZM25.4874 21.8116C25.4874 21.681 25.4874 21.594 25.4874 21.5007C25.4874 15.4865 25.4874 9.47223 25.4874 3.46424C25.4874 3.38339 25.4874 3.30253 25.4874 3.22168C25.4252 2.18925 24.5296 1.48645 23.5283 1.67925C22.7322 1.83474 22.216 2.50022 22.216 3.38339C22.216 9.45358 22.216 15.5175 22.216 21.5877C22.216 21.6562 22.2284 21.7183 22.2346 21.8116C23.3292 21.2457 24.399 21.2581 25.4936 21.8116H25.4874ZM7.47585 6.12617C7.47585 6.25056 7.47585 6.33141 7.47585 6.41848C7.47585 12.4451 7.47585 18.4718 7.47585 24.5047C7.47585 24.5793 7.47585 24.6477 7.47585 24.7223C7.53182 25.7797 8.4834 26.4949 9.50961 26.2586C10.2622 26.0844 10.7473 25.4003 10.7473 24.5171C10.7473 18.4904 10.7473 12.4638 10.7473 6.43092C10.7473 6.34385 10.7473 6.25677 10.7473 6.13239C9.65266 6.69836 8.57669 6.69836 7.46963 6.13239L7.47585 6.12617ZM17.3026 6.12617V6.4558C17.3026 12.4576 17.3026 18.4594 17.3026 24.4611C17.3026 24.542 17.3026 24.6228 17.3026 24.7037C17.3523 25.761 18.2915 26.4825 19.3239 26.2523C20.0702 26.0844 20.5802 25.4065 20.5802 24.5544C20.5802 18.4904 20.5802 12.4265 20.5802 6.36251C20.5802 6.29409 20.574 6.22568 20.5616 6.13861C19.467 6.69836 18.3972 6.69836 17.3026 6.13239V6.12617Z" fill="#666666"/>
</g>
<defs>
<clipPath id="clip0_489_1591">
<rect width="28" height="28" fill="white"/>
</clipPath>
</defs>
</svg>
