<svg width="28" height="28" viewBox="0 0 28 28" fill="none" xmlns="http://www.w3.org/2000/svg">
<g clip-path="url(#clip0_483_960)">
<path d="M5.07508 0C5.51044 0 5.95202 0 6.38738 0C6.43714 0.0186584 6.48689 0.0435362 6.53665 0.0497557C9.27321 0.398045 11.4562 2.84851 11.4625 5.60995C11.4625 6.90982 11.4625 8.20968 11.4625 9.50955C11.4625 9.60906 11.4625 9.70235 11.4625 9.82674H27.9254V27.9378H27.689C20.3314 27.9378 12.9738 27.9378 5.61617 27.9378C5.41093 27.9378 5.19947 27.9191 4.99422 27.8881C2.68059 27.5771 0.814749 25.9538 0.199023 23.7024C0.11817 23.4349 0.0621946 23.1488 0 22.8689C0 16.9356 0 11.0084 0 5.07508C0.0186584 5.03776 0.0435362 4.99422 0.0497557 4.95691C0.466459 2.53132 1.84718 0.957797 4.1857 0.211462C4.47801 0.11817 4.77654 0.068414 5.07508 0ZM26.2959 11.4811H11.4625C11.4625 11.6117 11.4625 11.7175 11.4625 11.8232C11.4625 15.2812 11.4625 18.733 11.4625 22.191C11.4625 23.7024 10.9338 25.0084 9.92004 26.1279C9.8765 26.1777 9.83918 26.2337 9.78943 26.2896H26.2959V11.4811ZM9.82052 18.1733V17.825C9.82052 13.8943 9.82052 9.96357 9.82052 6.03909C9.82052 5.76544 9.80187 5.49178 9.77699 5.22434C9.52821 2.92936 7.25811 1.25633 5.00044 1.70413C3.004 2.10218 1.64194 3.75033 1.64194 5.79032C1.64194 9.82674 1.64194 13.8694 1.64194 17.9058C1.64194 17.9805 1.65438 18.0551 1.6606 18.1546C3.98667 15.9032 7.53798 15.9405 9.83296 18.1733H9.82052ZM9.82052 22.2221C9.82674 19.9831 7.97956 18.1173 5.73434 18.1173C3.50155 18.1173 1.64816 19.952 1.63572 22.1848C1.61706 24.4238 3.46424 26.2959 5.70946 26.3083C7.94847 26.3207 9.8143 24.4736 9.82052 22.2283V22.2221Z" fill="#666666"/>
<path d="M5.74049 24.6726C4.37221 24.6726 3.27759 23.5842 3.27759 22.2221C3.27759 20.8538 4.36599 19.7592 5.72805 19.7592C7.09634 19.7592 8.19096 20.8476 8.19096 22.2035C8.19096 23.5717 7.10255 24.6664 5.74671 24.6664L5.74049 24.6726ZM5.73427 23.0369C6.16964 23.0369 6.55524 22.645 6.54902 22.2097C6.54902 21.7868 6.16964 21.4074 5.74671 21.4012C5.31757 21.3887 4.91952 21.7805 4.91331 22.2097C4.91331 22.6388 5.29891 23.0369 5.72805 23.0306L5.73427 23.0369Z" fill="#666666"/>
</g>
<defs>
<clipPath id="clip0_483_960">
<rect width="28" height="28" fill="white"/>
</clipPath>
</defs>
</svg>
