<svg width="28" height="28" viewBox="0 0 28 28" fill="none" xmlns="http://www.w3.org/2000/svg">
<g clip-path="url(#clip0_617_723)">
<path d="M28 8.13505C27.9192 8.20347 27.8259 8.25944 27.7512 8.33407C21.2892 14.7899 14.8334 21.2457 8.37762 27.7077C8.30299 27.7823 8.24079 27.8756 8.19104 27.9378C7.77433 27.5211 7.39495 27.1417 7.00934 26.7561C7.75568 26.0098 8.53311 25.2323 9.28566 24.4798C7.35763 22.5518 5.45448 20.6486 3.53266 18.7268C2.79255 19.4731 2.01512 20.2568 1.25012 21.028C0.839639 20.6175 0.460252 20.2381 0.0124512 19.7903C0.0684263 19.7592 0.174157 19.7219 0.242571 19.6535C6.72947 13.1853 13.2101 6.70458 19.6846 0.23012C19.753 0.161706 19.8028 0.080853 19.865 0C19.9023 0 19.9396 0 19.9769 0C20.3439 0.385606 20.7108 0.771213 21.1151 1.19414C20.3252 1.97779 19.5415 2.75522 18.7952 3.50155C20.7046 5.41093 22.6077 7.31408 24.5233 9.22968C25.2759 8.4709 26.0533 7.69969 26.837 6.90982C27.2288 7.28299 27.6144 7.64993 28 8.01688V8.12883V8.13505ZM15.2999 7.02177C17.1844 8.90626 19.0875 10.8094 20.972 12.6939C21.7184 11.9476 22.4771 11.1888 23.2235 10.4487C21.339 8.56419 19.442 6.66726 17.5575 4.78276C16.8112 5.52288 16.0524 6.28165 15.2999 7.02799V7.02177ZM19.7281 13.9378C17.8436 12.0533 15.9467 10.1564 14.056 8.26566C13.3159 9.00578 12.5509 9.77077 11.8045 10.5171C13.689 12.4016 15.5922 14.3048 17.4705 16.183C18.2168 15.4367 18.9756 14.6779 19.7219 13.9378H19.7281ZM8.30921 13.9938C10.2124 15.8969 12.1155 17.8001 13.9814 19.6659C14.7277 18.9258 15.4865 18.1608 16.2204 17.4269C14.3421 15.5486 12.4389 13.6455 10.5482 11.7548C9.8081 12.4949 9.05554 13.2537 8.30921 13.9938ZM4.81387 17.4829C6.72325 19.3923 8.62018 21.2892 10.486 23.155C11.2324 22.4149 11.9911 21.6562 12.7312 20.9223C10.8467 19.044 8.94981 17.1408 7.05288 15.2501C6.31898 15.984 5.56021 16.7428 4.81387 17.4829Z" fill="#0068D2"/>
</g>
<defs>
<clipPath id="clip0_617_723">
<rect width="28" height="28" fill="white"/>
</clipPath>
</defs>
</svg>
