<svg width="20" height="25" viewBox="0 0 20 25" fill="none" xmlns="http://www.w3.org/2000/svg">
<path fill-rule="evenodd" clip-rule="evenodd" d="M10.4187 24.4817L11.1141 23.8745C16.9619 18.7684 19.9342 14.31 19.9342 10.3909C19.9342 4.84095 15.6025 0.875488 10.4187 0.875488C5.23501 0.875488 0.90332 4.84095 0.90332 10.3909C0.90332 14.31 3.87563 18.7684 9.72335 23.8745L10.4187 24.4817ZM10.4187 21.665C5.45657 17.1929 3.01786 13.4033 3.01786 10.3909C3.01786 6.05252 6.36318 2.99003 10.4187 2.99003C14.4743 2.99003 17.8196 6.05252 17.8196 10.3909C17.8196 13.4033 15.3809 17.1929 10.4187 21.665ZM10.419 5.10457C13.3386 5.10457 15.7054 7.47134 15.7054 10.3909C15.7054 13.3105 13.3386 15.6773 10.419 15.6773C7.49943 15.6773 5.13266 13.3105 5.13266 10.3909C5.13266 7.47134 7.49943 5.10457 10.419 5.10457ZM7.24694 10.3908C7.24694 8.63904 8.667 7.21898 10.4187 7.21898C12.1705 7.21898 13.5906 8.63904 13.5906 10.3908C13.5906 12.1425 12.1705 13.5626 10.4187 13.5626C8.667 13.5626 7.24694 12.1425 7.24694 10.3908Z" fill="white"/>
</svg>
